<svg xmlns="http://www.w3.org/2000/svg" xmlns:xlink="http://www.w3.org/1999/xlink" data-name="Layer 1" viewBox="0 0 512 512"><defs><linearGradient id="a" x1="256" x2="256" y1="17.767" y2="482.823" gradientUnits="userSpaceOnUse"><stop offset="0" stop-color="#00efd1"/><stop offset="1" stop-color="#00acea"/></linearGradient><linearGradient id="b" x1="255.5" x2="255.5" y1="17.767" y2="482.823" xlink:href="#a"/><linearGradient id="c" x1="219" x2="219" y1="17.767" y2="482.823" xlink:href="#a"/><linearGradient id="d" x1="293" x2="293" y1="17.767" y2="482.823" xlink:href="#a"/></defs><path fill="url(#a)" d="M492.312,392H479V144.061C479,117.278,457.089,95,430.307,95H356v-.161A8.126,8.126,0,0,0,347.7,87H263V79.829a24.362,24.362,0,1,0-16-.7V87H164.3a8.126,8.126,0,0,0-8.3,7.839V95H81.693C54.911,95,33,117.278,33,144.061V392H19.688A7.814,7.814,0,0,0,12,400.085v31.2C12,458.063,33.477,480,60.259,480H451.741C478.523,480,500,458.063,500,431.281v-31.2A7.814,7.814,0,0,0,492.312,392ZM256,48.148a8.356,8.356,0,1,1-8.355,8.356A8.365,8.365,0,0,1,256,48.148Zm120.466,106.77c0-.241-.161.082-.168-.918H423V355H89V154h46.7c-.007,1-.168.677-.168.918A28.128,28.128,0,0,0,156,182.216v41.489A8.516,8.516,0,0,0,164.3,232H206v11H193.34C160.552,243,134,270.092,134,302.881v30.56A7.529,7.529,0,0,0,141.876,341H370.124A7.529,7.529,0,0,0,378,333.441v-30.56C378,270.092,351.448,243,318.66,243H306V232h41.7a8.516,8.516,0,0,0,8.3-8.295V182.216A28.128,28.128,0,0,0,376.466,154.918ZM156,164.618a12.09,12.09,0,0,1,0-19ZM206,325V301H306v24Zm107.881-40H198.119A7.9,7.9,0,0,0,190,292.758V325H150V302.881C150,278.914,169.374,259,193.34,259H318.66c23.966,0,43.34,19.914,43.34,43.881V325H322V292.758A7.9,7.9,0,0,0,313.881,285ZM222,243V232h68v11Zm134-78.382v-19a12.09,12.09,0,0,1,0,19ZM172,103H340V216H172ZM49,144.061C49,126.1,63.733,111,81.693,111H156v17.016A27.09,27.09,0,0,0,141.209,138H81.158A8.483,8.483,0,0,0,73,146.4V362.727A8.373,8.373,0,0,0,81.158,371H430.842A8.373,8.373,0,0,0,439,362.727V146.4a8.483,8.483,0,0,0-8.158-8.4H370.791A27.09,27.09,0,0,0,356,128.016V111h74.307C448.267,111,463,126.1,463,144.061V392H315.519a8.043,8.043,0,0,0-5.883,2.621l-8.234,8.908A32.641,32.641,0,0,1,277.452,414h-42.9A32.613,32.613,0,0,1,210.6,403.55l-8.235-8.953a8.019,8.019,0,0,0-5.883-2.6H49Zm435,287.22A32.471,32.471,0,0,1,451.741,464H60.259A32.471,32.471,0,0,1,28,431.281V408H192.976l5.858,6.352A48.7,48.7,0,0,0,234.548,430h42.9a48.706,48.706,0,0,0,35.715-15.648L319.024,408H484Z"/><path fill="url(#b)" d="M309,176a8,8,0,0,0-8-8H210a8,8,0,0,0-8,8v25a8,8,0,0,0,8,8h91a8,8,0,0,0,8-8Zm-15,16H218v-8h76Z"/><path fill="url(#c)" d="M240,124a8,8,0,0,0-8-8H206a8,8,0,0,0-8,8v26a8,8,0,0,0,8,8h26a8,8,0,0,0,8-8Zm-26,8h10v10H214Z"/><path fill="url(#d)" d="M314,124a8,8,0,0,0-8-8H280a8,8,0,0,0-8,8v26a8,8,0,0,0,8,8h26a8,8,0,0,0,8-8Zm-26,8h10v10H288Z"/></svg>