<svg xmlns="http://www.w3.org/2000/svg" width="48" height="48" viewBox="0 0 48 48"><g transform="translate(0 -1004.362)"><path fill="#fff" d="m 28.13724,1029.1361 2.27037,3.9325 -2.58625,1.4932 -2.27051,-3.9325"/><path fill="#c2e4f8" d="m 30.96291,1014.6097 c -3.16964,-5.4901 -10.22333,-7.3801 -15.71331,-4.2105 -5.48998,3.1699 -7.38196,10.225 -4.21231,15.7152 3.16963,5.4904 10.22528,7.3793 15.71526,4.2096 5.49,-3.1698 7.38002,-10.2239 4.21036,-15.7143 z" color="#000" font-family="sans-serif" font-weight="400" overflow="visible" white-space="normal" style="line-height:normal;text-indent:0;text-align:start;text-decoration-line:none;text-decoration-style:solid;text-decoration-color:#000;text-transform:none;block-progression:tb;isolation:auto;mix-blend-mode:normal"/><path fill="#fff" d="m 28.7912,1034.0018 -0.32328,0.1867 -0.32328,0.1866 -0.32328,0.1867 -2.27051,-3.9325 0.3233,-0.1867 0.3233,-0.1866 0.3233,-0.1866 z"/><path fill="#c2e4f8" d="m 31.37332,1031.7294 6.72517,11.648 c 0.82796,1.4342 0.34009,3.2553 -1.09394,4.0832 -1.43418,0.8279 -3.25522,0.3399 -4.08304,-1.0941 l -6.72516,-11.6481 z"/><path fill="none" d="m 30.94871,1031.2279 6.72516,11.648 c 0.82797,1.4342 0.34009,3.2553 -1.09393,4.0832 -1.43418,0.8279 -3.25522,0.3399 -4.08304,-1.0941 l -6.72516,-11.6481 z"/><path fill="#fff" style="line-height:normal;text-indent:0;text-align:start;text-decoration-line:none;text-decoration-style:solid;text-decoration-color:#000;text-transform:none;block-progression:tb;isolation:auto;mix-blend-mode:normal" d="m 28.36423,1016.1106 c -2.34278,-4.0579 -7.55638,-5.455 -11.61419,-3.112 -4.05781,2.3428 -5.45623,7.5576 -3.11345,11.6155 2.34277,4.0581 7.55781,5.4543 11.61563,3.1114 4.05782,-2.3429 5.45479,-7.5567 3.11201,-11.6149 z" color="#000" font-family="sans-serif" font-weight="400" overflow="visible" white-space="normal"/><path fill="#249fe6" style="line-height:normal;text-indent:0;text-align:start;text-decoration-line:none;text-decoration-style:solid;text-decoration-color:#000;text-transform:none;block-progression:tb;isolation:auto;mix-blend-mode:normal" d="M21.443388 1014.6161a.50018102.49991895 14.999619 0 0-.442415-.2543c-1.865791 0-3.626734.8696-4.762549 2.3489-1.13581 1.4793-1.518452 3.4031-1.035521 5.2043a.50018102.49991895 14.999619 1 0 .964665-.259c-.402621-1.5016-.0825-3.1032.864554-4.3367.947061-1.2335 2.413856-1.9567 3.96956-1.9567a.50018102.49991895 14.999619 0 0 .441706-.7465zM28.470703 1029.2246a.50005.50005 0 0 0-.410156.7559l1.335937 2.3164-1.71875.9941-1.363281-2.3594a.50005.50005 0 1 0-.865234.5l1.611328 2.7911a.50005.50005 0 0 0 .683594.1835l2.585937-1.4941a.50005.50005 0 0 0 .183594-.6816l-1.587891-2.75a.50005.50005 0 0 0-.455078-.2559z" color="#000" font-family="sans-serif" font-weight="400" overflow="visible" white-space="normal"/><path fill="#fff" d="m 27.2207,1034.1277 -1.02343,0.5899 6.72461,11.6484 c 0.82781,1.434 2.64785,1.9217 4.08203,1.0938 0.91693,-0.5294 1.44165,-1.4646 1.48828,-2.4454 -0.24779,0.3741 -0.57194,0.705 -0.98828,0.9454 -1.43418,0.8279 -3.25617,0.3383 -4.08399,-1.0957 l -6.19922,-10.7364 z"/><path fill="#249fe6" style="line-height:normal;text-indent:0;text-align:start;text-decoration-line:none;text-decoration-style:solid;text-decoration-color:#000;text-transform:none;block-progression:tb;isolation:auto;mix-blend-mode:normal" d="m 31.347656,1031.2324 a 0.50005,0.50005 0 0 0 -0.222656,0.066 l -5.177734,2.9883 a 0.50005,0.50005 0 0 0 -0.181641,0.6836 l 6.724609,11.6465 c 0.961987,1.6664 3.099056,2.2394 4.765625,1.2773 1.666459,-0.9621 2.239451,-3.099 1.277344,-4.7656 l -6.724609,-11.6484 a 0.50005,0.50005 0 0 0 -0.460938,-0.2481 z m -0.15625,1.1817 6.476563,11.2148 c 0.693813,1.2018 0.289491,2.7067 -0.91211,3.4004 -1.20179,0.6937 -2.706757,0.2895 -3.40039,-0.9121 l -6.47461,-11.2149 4.310547,-2.4882 z" color="#000" font-family="sans-serif" font-weight="400" overflow="visible" white-space="normal"/><path fill="#fff" d="m 20.6875,1008.866 c -1.85478,0.047 -3.72188,0.5427 -5.4375,1.5332 -5.48998,3.1699 -7.38254,10.2247 -4.21289,15.7149 2.2455,3.8896 6.44063,5.9603 10.64844,5.7168 -3.67951,-0.2673 -7.17058,-2.2908 -9.14844,-5.7168 -3.16964,-5.4902 -1.27709,-12.545 4.21289,-15.7149 1.60124,-0.9245 3.33428,-1.406 5.06641,-1.5058 -0.37438,-0.027 -0.75202,-0.037 -1.12891,-0.027 z" color="#000" font-family="sans-serif" font-weight="400" overflow="visible" white-space="normal" style="line-height:normal;text-indent:0;text-align:start;text-decoration-line:none;text-decoration-style:solid;text-decoration-color:#000;text-transform:none;block-progression:tb;isolation:auto;mix-blend-mode:normal"/><path fill="#249fe6" style="line-height:normal;text-indent:0;text-align:start;text-decoration-line:none;text-decoration-style:solid;text-decoration-color:#000;text-transform:none;block-progression:tb;isolation:auto;mix-blend-mode:normal" d="m 19.511719,1008.4512 c -1.547476,0.1903 -3.082218,0.6872 -4.513672,1.5136 -5.725804,3.3061 -7.7003922,10.6743 -4.394531,16.4004 3.305837,5.7264 10.674563,7.6985 16.40039,4.3926 5.725836,-3.306 7.698376,-10.6723 4.392578,-16.3984 -2.47935,-4.2946 -7.242338,-6.4793 -11.884765,-5.9082 z m 0.126953,0.9902 c 4.255728,-0.5256 8.616853,1.4761 10.892578,5.418 3.034302,5.2558 1.2282,11.9987 -4.027344,15.0332 -5.255552,3.0343 -12.000933,1.2285 -15.035156,-4.0274 -3.0342392,-5.2556 -1.226239,-12.0006 4.029297,-15.0351 1.313886,-0.7586 2.722049,-1.2135 4.140625,-1.3887 z" color="#000" font-family="sans-serif" font-weight="400" overflow="visible" white-space="normal"/><path fill="#fff" d="m 20.76953,1011.8641 c -1.37092,0.035 -2.75146,0.4025 -4.01953,1.1347 -4.05781,2.3428 -5.45606,7.5574 -3.11328,11.6153 1.70247,2.9489 4.9216,4.4828 8.11133,4.207 -2.66414,-0.2408 -5.17638,-1.7215 -6.61133,-4.207 -2.34278,-4.0579 -0.94453,-9.2725 3.11328,-11.6153 1.10903,-0.6403 2.30441,-0.992 3.50391,-1.0957 -0.32668,-0.03 -0.65484,-0.047 -0.98438,-0.039 z" color="#000" font-family="sans-serif" font-weight="400" overflow="visible" white-space="normal" style="line-height:normal;text-indent:0;text-align:start;text-decoration-line:none;text-decoration-style:solid;text-decoration-color:#000;text-transform:none;block-progression:tb;isolation:auto;mix-blend-mode:normal"/><path fill="#249fe6" style="line-height:normal;text-indent:0;text-align:start;text-decoration-line:none;text-decoration-style:solid;text-decoration-color:#000;text-transform:none;block-progression:tb;isolation:auto;mix-blend-mode:normal" d="m 19.884766,1011.4297 c -1.160696,0.1427 -2.311309,0.515 -3.384766,1.1348 -4.293813,2.4792 -5.777933,8.0067 -3.298828,12.3007 2.479079,4.2942 8.008902,5.774 12.302734,3.295 4.29382,-2.4793 5.773953,-8.0067 3.294922,-12.3008 -1.859274,-3.2205 -5.431974,-4.8578 -8.914062,-4.4297 z m 0.125,0.9883 c 3.095385,-0.3826 6.268182,1.0736 7.923828,3.9414 2.207549,3.8238 0.893872,8.7278 -2.929688,10.9355 -3.823547,2.2076 -8.728085,0.894 -10.935547,-2.9297 -2.207475,-3.8235 -0.891906,-8.7278 2.931641,-10.9355 0.955883,-0.5519 1.97797,-0.8842 3.009766,-1.0117 z" color="#000" font-family="sans-serif" font-weight="400" overflow="visible" white-space="normal"/></g></svg>