<svg xmlns="http://www.w3.org/2000/svg" xmlns:xlink="http://www.w3.org/1999/xlink" id="Layer_1" enable-background="new 0 0 64 64" viewBox="0 0 64 64"><path fill="#457abe" d="M10.489,25.495h-6c-0.276,0-0.5-0.224-0.5-0.5v-4.006c0-1.93,1.57-3.5,3.5-3.5s3.5,1.57,3.5,3.5v4.006    C10.989,25.271,10.766,25.495,10.489,25.495z M4.989,24.495h5v-3.506c0-1.378-1.121-2.5-2.5-2.5s-2.5,1.122-2.5,2.5V24.495z"/><path fill="#457abe" d="M19.489 45.495h-9c-.276 0-.5-.224-.5-.5V23.989c0-.276.224-.5.5-.5s.5.224.5.5v20.506h8.5c.276 0 .5.224.5.5S19.766 45.495 19.489 45.495zM30.489 33.505c-.276 0-.5-.224-.5-.5V20.989c0-1.378-1.121-2.5-2.5-2.5h-20c-.276 0-.5-.224-.5-.5s.224-.5.5-.5h20c1.93 0 3.5 1.57 3.5 3.5v12.016C30.989 33.281 30.766 33.505 30.489 33.505zM57.511 48.495h-23c-.276 0-.5-.224-.5-.5s.224-.5.5-.5h22.5v-31h-22v11.49c0 .276-.224.5-.5.5s-.5-.224-.5-.5v-11.99c0-.276.224-.5.5-.5h23c.276 0 .5.224.5.5v32C58.011 48.271 57.787 48.495 57.511 48.495z"/><path fill="#457abe" d="M50.511 48.495c-.276 0-.5-.224-.5-.5v-10c0-.167.084-.323.223-.416l2.777-1.852V15.995c0-.276.224-.5.5-.5s.5.224.5.5v20c0 .167-.084.323-.223.416l-2.777 1.852v9.732C51.011 48.271 50.787 48.495 50.511 48.495zM59.511 21.489h-2c-.276 0-.5-.224-.5-.5v-3c0-.276.224-.5.5-.5h2c.276 0 .5.224.5.5v3C60.011 21.266 59.787 21.489 59.511 21.489zM58.011 20.489h1v-2h-1V20.489zM59.511 26.489h-2c-.276 0-.5-.224-.5-.5v-3c0-.276.224-.5.5-.5h2c.276 0 .5.224.5.5v3C60.011 26.266 59.787 26.489 59.511 26.489zM58.011 25.489h1v-2h-1V25.489zM59.511 31.489h-2c-.276 0-.5-.224-.5-.5v-3c0-.276.224-.5.5-.5h2c.276 0 .5.224.5.5v3C60.011 31.266 59.787 31.489 59.511 31.489zM58.011 30.489h1v-2h-1V30.489z"/><path id="XMLID_6_" fill="#457abe" d="M16.989,48.485c-1.654,0-3-1.346-3-3v-0.49h1v0.49c0,1.103,0.897,2,2,2V48.485z"/><path id="XMLID_1_" fill="#457abe" d="M44.989,38.985h-1v-8.5c0-1.103-0.897-2-2-2h-11.25v-1h11.25c1.654,0,3,1.346,3,3V38.985z"/><path id="XMLID_2_" fill="#457abe" d="M41.989,48.505h-25v-1c1.103,0,2-0.897,2-2v-10c0-1.654,1.346-3,3-3h20c1.654,0,3,1.346,3,3v10    C44.989,47.159,43.644,48.505,41.989,48.505z M19.224,47.505h22.766c1.103,0,2-0.897,2-2v-10c0-1.103-0.897-2-2-2h-20    c-1.103,0-2,0.897-2,2v10C19.989,46.272,19.699,46.974,19.224,47.505z"/><path fill="#457abe" d="M24.489 21.489h-8c-.276 0-.5-.224-.5-.5s.224-.5.5-.5h8c.276 0 .5.224.5.5S24.766 21.489 24.489 21.489zM27.489 24.489h-14c-.276 0-.5-.224-.5-.5s.224-.5.5-.5h14c.276 0 .5.224.5.5S27.766 24.489 27.489 24.489zM27.489 27.489h-14c-.276 0-.5-.224-.5-.5s.224-.5.5-.5h14c.276 0 .5.224.5.5S27.766 27.489 27.489 27.489zM27.489 30.489h-14c-.276 0-.5-.224-.5-.5s.224-.5.5-.5h14c.276 0 .5.224.5.5S27.766 30.489 27.489 30.489zM21.489 33.489h-8c-.276 0-.5-.224-.5-.5s.224-.5.5-.5h8c.276 0 .5.224.5.5S21.766 33.489 21.489 33.489zM19.489 36.489h-6c-.276 0-.5-.224-.5-.5s.224-.5.5-.5h6c.276 0 .5.224.5.5S19.766 36.489 19.489 36.489zM19.489 39.489h-6c-.276 0-.5-.224-.5-.5s.224-.5.5-.5h6c.276 0 .5.224.5.5S19.766 39.489 19.489 39.489zM19.489 42.489h-6c-.276 0-.5-.224-.5-.5s.224-.5.5-.5h6c.276 0 .5.224.5.5S19.766 42.489 19.489 42.489zM49.511 23.495h-8c-.276 0-.5-.224-.5-.5v-3c0-.276.224-.5.5-.5h8c.276 0 .5.224.5.5v3C50.011 23.271 49.787 23.495 49.511 23.495zM42.011 22.495h7v-2h-7V22.495z"/><g><defs><rect id="SVGID_1_" width="675.5" height="132.688" x="-1329.486" y="195.422"/></defs><clipPath id="SVGID_2_"><use overflow="visible" xlink:href="#SVGID_1_"/></clipPath></g></svg>