<?xml version="1.0" encoding="UTF-8"?>
<!DOCTYPE svg PUBLIC "-//W3C//DTD SVG 1.1//EN" "http://www.w3.org/Graphics/SVG/1.1/DTD/svg11.dtd">
<svg xmlns="http://www.w3.org/2000/svg" xmlns:xlink="http://www.w3.org/1999/xlink" xml:space="preserve" width="6.82666in" height="6.82666in" style="shape-rendering:geometricPrecision; text-rendering:geometricPrecision; image-rendering:optimizeQuality; fill-rule:evenodd; clip-rule:evenodd" viewBox="0 0 6.82666 6.82666">
 <defs>
  <style type="text/css">
   <![CDATA[
    .fil2 {fill:none}
    .fil0 {fill:#0097A7}
    .fil1 {fill:#06737F}
    .fil3 {fill:#FFFFFE;fill-rule:nonzero}
   ]]>
  </style>
   <clipPath id="id0">
    <path d="M3.41333 0c1.88513,0 3.41333,1.5282 3.41333,3.41333 0,1.88513 -1.5282,3.41333 -3.41333,3.41333 -1.88513,0 -3.41333,-1.5282 -3.41333,-3.41333 0,-1.88513 1.5282,-3.41333 3.41333,-3.41333z"/>
   </clipPath>
 </defs>
 <g id="Layer_x0020_1">
  
  <path class="fil0" d="M3.41333 0c1.88513,0 3.41333,1.5282 3.41333,3.41333 0,1.88513 -1.5282,3.41333 -3.41333,3.41333 -1.88513,0 -3.41333,-1.5282 -3.41333,-3.41333 0,-1.88513 1.5282,-3.41333 3.41333,-3.41333z" style="fill: #0097A7;"/>
  <g style="clip-path:url(#id0)">
   <g id="_279906856">
    <g>
     <polygon id="_2782975521" class="fil1" points="3.95417,1.66051 7.74043,5.44678 7.75152,5.45989 7.7623,5.47328 7.77275,5.48691 7.78289,5.50081 7.7927,5.51496 7.80217,5.52935 7.8113,5.54398 7.82009,5.55884 7.82852,5.57393 7.8366,5.58924 7.84432,5.60477 7.85167,5.62051 7.85864,5.63645 7.86524,5.65259 7.87145,5.66893 7.87727,5.68546 7.8827,5.70217 7.88772,5.71905 7.89233,5.73611 7.89654,5.75333 7.90032,5.77071 7.90368,5.78825 7.90661,5.80593 7.90911,5.82376 7.91116,5.84173 7.91277,5.85983 7.91393,5.87805 7.91462,5.8964 7.91485,5.91486 4.12859,2.12859 4.12835,2.11013 4.12766,2.09178 4.1265,2.07356 4.12489,2.05546 4.12284,2.03749 4.12035,2.01966 4.11741,2.00198 4.11406,1.98444 4.11027,1.96706 4.10607,1.94983 4.10145,1.93278 4.09643,1.91589 4.091,1.89919 4.08518,1.88266 4.07897,1.86632 4.07237,1.85018 4.0654,1.83424 4.05805,1.8185 4.05033,1.80297 4.04226,1.78766 4.03382,1.77257 4.02503,1.7577 4.0159,1.74307 4.00643,1.72869 3.99662,1.71454 3.98648,1.70064 3.97603,1.687 3.96525,1.67362 " style="fill: #06737F;"/>
     <polygon id="_278298176" class="fil1" points="4.12859,2.12859 7.91485,5.91486 7.91462,5.93332 7.91393,5.95167 7.91277,5.96989 7.91116,5.98799 7.90911,6.00595 7.90661,6.02378 7.90368,6.04147 7.90032,6.059 7.89654,6.07639 7.89233,6.09361 7.88772,6.11067 7.8827,6.12755 7.87727,6.14426 7.87145,6.16078 7.86524,6.17712 7.85864,6.19326 7.85167,6.20921 7.84432,6.22494 7.8366,6.24047 7.82852,6.25579 7.82009,6.27088 7.8113,6.28574 7.80217,6.30037 7.7927,6.31476 7.78289,6.32891 7.77275,6.3428 7.7623,6.35644 7.75152,6.36982 7.74043,6.38293 7.72904,6.39578 7.71734,6.40833 7.70535,6.42061 3.91909,2.63434 3.93107,2.62206 3.94277,2.6095 3.95417,2.59666 3.96525,2.58355 3.97603,2.57017 3.98648,2.55653 3.99662,2.54263 4.00643,2.52849 4.0159,2.5141 4.02503,2.49947 4.03382,2.48461 4.04226,2.46952 4.05033,2.4542 4.05805,2.43867 4.0654,2.42294 4.07237,2.40699 4.07897,2.39085 4.08518,2.37451 4.091,2.35798 4.09643,2.34128 4.10145,2.32439 4.10607,2.30733 4.11027,2.29011 4.11406,2.27273 4.11741,2.2552 4.12035,2.23751 4.12284,2.21968 4.12489,2.20172 4.1265,2.18362 4.12766,2.16539 4.12835,2.14705 " style="fill: #06737F;"/>
     <polygon id="_278297528" class="fil1" points="3.91909,2.63434 7.70535,6.42061 7.69307,6.4326 7.68052,6.4443 7.66767,6.45569 7.65456,6.46678 7.64118,6.47755 7.62754,6.48801 7.61365,6.49815 7.5995,6.50795 7.58511,6.51743 7.57048,6.52656 7.55562,6.53535 7.54053,6.54378 7.52521,6.55186 7.50969,6.55958 7.49395,6.56693 7.478,6.5739 7.46186,6.5805 7.44552,6.58671 7.429,6.59253 7.41229,6.59796 7.39541,6.60298 7.37835,6.60759 7.36113,6.6118 7.34374,6.61558 7.32621,6.61894 7.30852,6.62187 7.29069,6.62437 7.27273,6.62642 7.25463,6.62803 7.23641,6.62919 7.21806,6.62988 7.1996,6.63011 3.41333,2.84384 3.43179,2.84361 3.45014,2.84291 3.46836,2.84176 3.48646,2.84015 3.50443,2.83809 3.52225,2.8356 3.53994,2.83267 3.55748,2.82931 3.57486,2.82552 3.59208,2.82132 3.60914,2.8167 3.62602,2.81169 3.64273,2.80626 3.65926,2.80044 3.67559,2.79422 3.69174,2.78763 3.70768,2.78065 3.72342,2.77331 3.73894,2.76559 3.75426,2.75751 3.76935,2.74907 3.78421,2.74029 3.79884,2.73115 3.81323,2.72168 3.82738,2.71187 3.84128,2.70174 3.85491,2.69128 3.8683,2.68051 3.88141,2.66942 3.89425,2.65802 3.90681,2.64633 " style="fill: #06737F;"/>
     <polygon id="_278287088" class="fil1" points="3.41333,2.84384 7.1996,6.63011 7.18114,6.62988 7.16279,6.62919 7.14457,6.62803 7.12647,6.62642 7.1085,6.62437 7.09068,6.62187 7.07299,6.61894 7.05545,6.61558 7.03807,6.6118 7.02085,6.60759 7.00379,6.60298 6.98691,6.59796 6.9702,6.59253 6.95367,6.58671 6.93734,6.5805 6.92119,6.5739 6.90525,6.56693 6.88951,6.55958 6.87398,6.55186 6.85867,6.54378 6.84358,6.53535 6.82872,6.52656 6.81409,6.51743 6.7997,6.50795 6.78555,6.49815 6.77165,6.48801 6.75802,6.47755 6.74463,6.46678 6.73152,6.45569 6.71868,6.4443 6.70612,6.4326 6.69384,6.42061 2.90757,2.63434 2.91985,2.64633 2.93241,2.65802 2.94526,2.66942 2.95837,2.68051 2.97175,2.69128 2.98539,2.70174 2.99928,2.71187 3.01343,2.72168 3.02782,2.73115 3.04245,2.74029 3.05731,2.74907 3.0724,2.75751 3.08772,2.76559 3.10324,2.77331 3.11898,2.78065 3.13493,2.78763 3.15107,2.79422 3.16741,2.80044 3.18393,2.80626 3.20064,2.81169 3.21752,2.8167 3.23458,2.82132 3.2518,2.82552 3.26919,2.82931 3.28672,2.83267 3.30441,2.8356 3.32224,2.83809 3.3402,2.84015 3.3583,2.84176 3.37652,2.84291 3.39487,2.84361 " style="fill: #06737F;"/>
     <polygon id="_278294936" class="fil1" points="2.58562,3.37909 6.37189,7.16536 5.8152,7.06819 2.02893,3.28192 " style="fill: #06737F;"/>
     <polygon id="_278288192" class="fil1" points="1.89284,4.12743 5.67911,7.9137 5.67512,7.9187 5.67123,7.92382 5.66744,7.92906 5.66374,7.93442 5.66016,7.93989 5.65668,7.94546 5.6533,7.95115 5.65004,7.95695 5.64689,7.96285 5.64385,7.96885 5.64093,7.97495 5.63811,7.98115 5.63543,7.98744 5.63286,7.99382 5.63041,8.0003 5.62809,8.00686 5.62589,8.01351 5.62383,8.02024 5.62189,8.02706 5.62008,8.03395 5.61841,8.04092 5.61687,8.04796 5.61548,8.05507 5.61422,8.06226 5.6131,8.06951 5.61212,8.07683 5.61129,8.08421 5.61061,8.09165 5.61007,8.09915 5.60969,8.1067 5.60946,8.11431 5.60938,8.12197 1.82311,4.3357 1.82319,4.32804 1.82342,4.32043 1.8238,4.31288 1.82434,4.30538 1.82502,4.29794 1.82585,4.29056 1.82683,4.28324 1.82795,4.27599 1.82921,4.2688 1.83061,4.26169 1.83214,4.25465 1.83381,4.24768 1.83562,4.24078 1.83756,4.23397 1.83963,4.22724 1.84182,4.22059 1.84414,4.21403 1.84659,4.20755 1.84916,4.20117 1.85185,4.19487 1.85466,4.18868 1.85758,4.18257 1.86062,4.17657 1.86377,4.17068 1.86704,4.16488 1.87041,4.15919 1.87389,4.15361 1.87748,4.14815 1.88117,4.14279 1.88496,4.13755 1.88885,4.13243 " style="fill: #06737F;"/>
     <polygon id="_278292128" class="fil1" points="1.82311,4.3357 5.60938,8.12197 5.60946,8.12963 5.60969,8.13724 5.61007,8.1448 5.61061,8.1523 5.61129,8.15974 5.61212,8.16711 5.6131,8.17443 5.61422,8.18169 5.61548,8.18887 5.61687,8.19598 5.61841,8.20303 5.62008,8.21 5.62189,8.21689 5.62383,8.2237 5.62589,8.23043 5.62809,8.23708 5.63041,8.24365 5.63286,8.25012 5.63543,8.2565 5.63811,8.2628 5.64093,8.269 5.64385,8.27509 5.64689,8.28109 5.65004,8.287 5.6533,8.29279 5.65668,8.29848 5.66016,8.30406 5.66374,8.30953 5.66744,8.31488 5.67123,8.32012 5.67512,8.32524 5.67911,8.33025 1.89284,4.54398 1.88885,4.53897 1.88496,4.53385 1.88117,4.52861 1.87748,4.52326 1.87389,4.51779 1.87041,4.51221 1.86704,4.50652 1.86377,4.50072 1.86062,4.49482 1.85758,4.48882 1.85466,4.48272 1.85185,4.47653 1.84916,4.47023 1.84659,4.46385 1.84414,4.45737 1.84182,4.45081 1.83963,4.44416 1.83756,4.43743 1.83562,4.43062 1.83381,4.42372 1.83214,4.41676 1.83061,4.40971 1.82921,4.4026 1.82795,4.39541 1.82683,4.38816 1.82585,4.38084 1.82502,4.37346 1.82434,4.36602 1.8238,4.35852 1.82342,4.35097 1.82319,4.34336 " style="fill: #06737F;"/>
     <polygon id="_278300984" class="fil1" points="2.13176,3.34581 5.91803,7.13209 5.91741,7.13406 5.91624,7.13992 5.91454,7.1494 5.91236,7.16224 5.90973,7.17818 5.90669,7.19697 5.90327,7.21834 5.89952,7.24204 5.89547,7.26781 5.89115,7.29539 5.88662,7.32452 5.88189,7.35494 5.87702,7.3864 5.87204,7.41863 5.86698,7.45137 5.86188,7.48437 5.85678,7.51737 5.85172,7.55011 5.84674,7.58233 5.84187,7.61378 5.83715,7.64419 5.83261,7.6733 5.8283,7.70085 5.82425,7.7266 5.8205,7.75027 5.81709,7.77161 5.81405,7.79036 5.81143,7.80626 5.80924,7.81906 5.80756,7.82849 5.80639,7.8343 5.80578,7.83622 2.01951,4.04995 2.02012,4.04803 2.02129,4.04222 2.02298,4.03279 2.02516,4.01999 2.02778,4.00409 2.03082,3.98534 2.03423,3.964 2.03798,3.94033 2.04203,3.91458 2.04634,3.88702 2.05088,3.85791 2.0556,3.82751 2.06047,3.79606 2.06545,3.76384 2.07052,3.7311 2.07561,3.6981 2.08071,3.6651 2.08577,3.63235 2.09075,3.60013 2.09563,3.56867 2.10035,3.53825 2.10489,3.50912 2.1092,3.48154 2.11325,3.45577 2.117,3.43207 2.12042,3.4107 2.12346,3.39191 2.12609,3.37596 2.12828,3.36313 2.12997,3.35365 2.13115,3.34779 " style="fill: #06737F;"/>
     <polygon id="_278287736" class="fil1" points="2.12362,3.99873 5.90989,7.785 5.90887,7.79066 5.90616,7.79594 5.90204,7.80086 5.89682,7.80542 5.89078,7.80963 5.88424,7.8135 5.87747,7.81704 5.87078,7.82026 5.86447,7.82317 5.85883,7.82577 5.85415,7.82807 5.85074,7.8301 5.84889,7.83184 5.84889,7.83331 2.06262,4.04704 2.06262,4.04557 2.06447,4.04383 2.06788,4.0418 2.07256,4.0395 2.0782,4.03689 2.08452,4.03399 2.0912,4.03077 2.09797,4.02723 2.10452,4.02336 2.11055,4.01915 2.11578,4.01459 2.11989,4.00967 2.12261,4.00439 " style="fill: #06737F;"/>
     <polygon id="_278293472" class="fil1" points="2.04693,4.04777 5.8332,7.83404 5.82765,7.83413 5.82214,7.83439 5.81665,7.83483 5.8112,7.83544 5.80578,7.83622 5.8004,7.83717 5.79506,7.83829 5.78975,7.83957 5.78449,7.841 5.77928,7.8426 5.77411,7.84436 5.76898,7.84627 5.76391,7.84833 5.75888,7.85054 5.75391,7.85291 5.74899,7.85541 5.74413,7.85807 5.73933,7.86086 5.73458,7.8638 5.7299,7.86687 5.72528,7.87007 5.72072,7.87341 5.71623,7.87689 5.71181,7.88049 5.70746,7.88422 5.70318,7.88807 5.69898,7.89205 5.69485,7.89615 5.69079,7.90036 5.68682,7.90469 5.68292,7.90914 5.67911,7.9137 1.89284,4.12743 1.89665,4.12287 1.90055,4.11842 1.90452,4.11409 1.90858,4.10987 1.91271,4.10578 1.91691,4.1018 1.92119,4.09794 1.92554,4.09422 1.92996,4.09061 1.93446,4.08714 1.93901,4.0838 1.94363,4.08059 1.94831,4.07752 1.95306,4.07459 1.95786,4.0718 1.96272,4.06914 1.96764,4.06663 1.97261,4.06427 1.97764,4.06206 1.98271,4.06 1.98784,4.05809 1.99301,4.05633 1.99822,4.05473 2.00348,4.0533 2.00879,4.05202 2.01413,4.0509 2.01951,4.04995 2.02493,4.04917 2.03038,4.04856 2.03587,4.04812 2.04139,4.04786 " style="fill: #06737F;"/>
     <polygon id="_278289032" class="fil1" points="2.27076,4.3357 6.05703,8.12197 6.05695,8.12963 6.05672,8.13724 6.05633,8.1448 6.0558,8.1523 6.05511,8.15974 6.05428,8.16711 6.05331,8.17443 6.05219,8.18169 6.05093,8.18887 6.04953,8.19598 6.048,8.20303 6.04632,8.21 6.04452,8.21689 6.04258,8.2237 6.04051,8.23043 6.03831,8.23708 6.036,8.24365 6.03355,8.25012 6.03098,8.2565 6.02829,8.2628 6.02548,8.269 6.02256,8.27509 6.01952,8.28109 6.01637,8.287 6.0131,8.29279 6.00973,8.29848 6.00625,8.30406 6.00266,8.30953 5.99897,8.31488 5.99518,8.32012 5.99129,8.32524 5.9873,8.33025 2.20103,4.54398 2.20502,4.53897 2.20891,4.53385 2.2127,4.52861 2.21639,4.52326 2.21998,4.51779 2.22346,4.51221 2.22683,4.50652 2.2301,4.50072 2.23325,4.49482 2.23629,4.48882 2.23921,4.48272 2.24202,4.47653 2.24471,4.47023 2.24728,4.46385 2.24973,4.45737 2.25205,4.45081 2.25424,4.44416 2.25631,4.43743 2.25825,4.43062 2.26006,4.42372 2.26173,4.41676 2.26326,4.40971 2.26466,4.4026 2.26592,4.39541 2.26704,4.38816 2.26802,4.38084 2.26885,4.37346 2.26953,4.36602 2.27007,4.35852 2.27045,4.35097 2.27068,4.34336 " style="fill: #06737F;"/>
     <polygon id="_278298536" class="fil1" points="2.20103,4.54398 5.9873,8.33025 5.984,8.3342 5.98064,8.33807 5.97722,8.34185 5.97375,8.34555 5.97021,8.34916 5.96662,8.35267 5.96297,8.3561 5.95927,8.35944 5.95551,8.36268 5.9517,8.36583 5.94784,8.36888 5.94393,8.37183 5.93996,8.37469 5.93596,8.37744 5.9319,8.3801 5.9278,8.38265 5.92365,8.38509 5.91946,8.38743 5.91523,8.38967 5.91095,8.39179 5.90664,8.3938 5.90228,8.3957 5.89789,8.39749 5.89346,8.39917 5.889,8.40072 5.8845,8.40217 5.87997,8.40349 5.87541,8.40469 5.87081,8.40578 5.86618,8.40674 5.86153,8.40757 5.85685,8.40828 2.07058,4.62201 2.07526,4.6213 2.07991,4.62046 2.08454,4.6195 2.08914,4.61842 2.0937,4.61722 2.09823,4.6159 2.10273,4.61445 2.1072,4.61289 2.11163,4.61122 2.11602,4.60943 2.12037,4.60753 2.12469,4.60552 2.12896,4.60339 2.13319,4.60116 2.13738,4.59882 2.14153,4.59638 2.14563,4.59383 2.14969,4.59117 2.1537,4.58842 2.15766,4.58556 2.16157,4.58261 2.16543,4.57956 2.16924,4.57641 2.173,4.57317 2.1767,4.56983 2.18035,4.5664 2.18394,4.56289 2.18748,4.55928 2.19096,4.55558 2.19437,4.5518 2.19773,4.54793 " style="fill: #06737F;"/>
     <polygon id="_278296880" class="fil1" points="1.89284,4.54398 5.67911,8.33025 5.68292,8.33481 5.68682,8.33925 5.69079,8.34358 5.69485,8.3478 5.69898,8.3519 5.70318,8.35587 5.70746,8.35973 1.92119,4.57346 1.91691,4.5696 1.91271,4.56563 1.90858,4.56153 1.90452,4.55731 1.90055,4.55298 1.89665,4.54854 " style="fill: #06737F;"/>
     <polygon id="_278294504" class="fil1" points="2.06915,4.6222 5.85542,8.40847 5.8498,8.40956 5.84436,8.41112 5.83914,8.41315 5.83415,8.41562 5.82943,8.41851 5.82499,8.42179 5.82086,8.42543 5.81707,8.42942 5.81363,8.43372 5.81057,8.43833 5.80792,8.4432 5.80569,8.44832 5.80392,8.45367 5.80263,8.45921 5.80183,8.46493 5.80156,8.47081 2.01529,4.68454 2.01556,4.67866 2.01636,4.67294 2.01765,4.6674 2.01943,4.66205 2.02165,4.65693 2.0243,4.65206 2.02736,4.64745 2.0308,4.64315 2.03459,4.63916 2.03872,4.63552 2.04317,4.63224 2.04789,4.62935 2.05287,4.62688 2.05809,4.62485 2.06353,4.62328 " style="fill: #06737F;"/>
     <polygon id="_278295944" class="fil1" points="2.01529,4.68454 5.80156,8.47081 5.80156,8.81293 2.01529,5.02666 " style="fill: #06737F;"/>
     <polygon id="_278297960" class="fil1" points="2.01529,5.02666 5.80156,8.81293 5.7935,8.81117 5.78549,8.80767 5.77755,8.80254 1.99128,5.01626 1.99922,5.0214 2.00723,5.0249 " style="fill: #06737F;"/>
     <polygon id="_278295392" class="fil1" points="4.31869,3.27799 8.10496,7.06426 8.1153,7.0753 8.12544,7.08646 8.13536,7.09775 8.14507,7.10917 8.15456,7.1207 8.16383,7.13237 4.37756,3.34609 4.36829,3.33443 4.3588,3.32289 4.34909,3.31148 4.33917,3.30019 4.32904,3.28903 " style="fill: #06737F;"/>
     <polygon id="_278291528" class="fil1" points="4.79292,3.27652 8.57919,7.0628 8.58326,7.06727 8.58688,7.07212 8.59004,7.07731 8.59269,7.08282 8.59481,7.08861 8.59636,7.09465 8.59731,7.1009 8.59764,7.10734 4.81137,3.32107 4.81104,3.31463 4.81009,3.30837 4.80854,3.30233 4.80642,3.29655 4.80377,3.29104 4.80061,3.28585 4.79699,3.281 " style="fill: #06737F;"/>
     <polygon id="_278301128" class="fil1" points="4.81137,3.32107 8.59764,7.10734 8.59764,7.70971 4.81137,3.92344 " style="fill: #06737F;"/>
     <polygon id="_278300576" class="fil1" points="5.01478,4.02881 8.80105,7.81508 8.80666,7.82123 8.81215,7.82753 8.81753,7.83397 5.03126,4.0477 5.02588,4.04126 5.02039,4.03496 " style="fill: #06737F;"/>
     <polygon id="_278293928" class="fil1" points="5.03126,4.0477 8.81753,7.83397 8.82315,7.84101 8.82864,7.84822 8.83398,7.85557 8.83918,7.86309 8.84424,7.87074 8.84914,7.87855 8.8539,7.8865 8.8585,7.89458 8.86294,7.9028 8.86722,7.91116 8.87135,7.91964 8.8753,7.92825 8.87909,7.93698 8.88271,7.94584 8.88616,7.95481 8.88943,7.96389 8.89253,7.97308 8.89544,7.98238 8.89817,7.99178 8.90072,8.00129 8.90307,8.01089 8.90524,8.02058 8.90721,8.03037 8.90898,8.04024 8.91056,8.05019 8.91194,8.06023 8.91311,8.07035 8.91407,8.08054 8.91482,8.0908 8.91537,8.10112 8.91569,8.11152 8.9158,8.12197 5.12954,4.3357 5.12943,4.32524 5.1291,4.31485 5.12856,4.30452 5.1278,4.29426 5.12684,4.28407 5.12567,4.27396 5.1243,4.26392 5.12272,4.25396 5.12094,4.24409 5.11897,4.23431 5.11681,4.22461 5.11445,4.21502 5.11191,4.20551 5.10917,4.19611 5.10626,4.18681 5.10317,4.17762 5.09989,4.16854 5.09644,4.15957 5.09283,4.15071 5.08904,4.14198 5.08508,4.13337 5.08096,4.12489 5.07667,4.11653 5.07223,4.10831 5.06763,4.10022 5.06287,4.09228 5.05797,4.08447 5.05291,4.07681 5.04771,4.0693 5.04237,4.06194 5.03688,4.05474 " style="fill: #06737F;"/>
     <polygon id="_278287136" class="fil1" points="5.12954,4.3357 8.9158,8.12197 8.91569,8.13243 8.91537,8.14282 8.91482,8.15315 8.91407,8.16341 8.91311,8.1736 8.91194,8.18371 8.91056,8.19375 8.90898,8.20371 8.90721,8.21358 8.90524,8.22336 8.90307,8.23306 8.90072,8.24266 8.89817,8.25216 8.89544,8.26156 8.89253,8.27086 8.88943,8.28006 8.88616,8.28914 8.88271,8.29811 8.87909,8.30696 8.8753,8.31569 8.87135,8.3243 8.86722,8.33278 8.86294,8.34114 8.8585,8.34936 8.8539,8.35745 8.84914,8.36539 8.84424,8.3732 8.83918,8.38086 8.83398,8.38837 8.82864,8.39573 8.82315,8.40293 8.81753,8.40998 5.03126,4.6237 5.03688,4.61666 5.04237,4.60946 5.04771,4.6021 5.05291,4.59459 5.05797,4.58693 5.06287,4.57912 5.06763,4.57118 5.07223,4.56309 5.07667,4.55487 5.08096,4.54651 5.08508,4.53803 5.08904,4.52942 5.09283,4.52069 5.09644,4.51183 5.09989,4.50287 5.10317,4.49378 5.10626,4.48459 5.10917,4.47529 5.11191,4.46589 5.11445,4.45639 5.11681,4.44679 5.11897,4.43709 5.12094,4.42731 5.12272,4.41744 5.1243,4.40748 5.12567,4.39744 5.12684,4.38733 5.1278,4.37714 5.12856,4.36688 5.1291,4.35655 5.12943,4.34616 " style="fill: #06737F;"/>
     <polygon id="_278289464" class="fil1" points="5.03126,4.6237 8.81753,8.40998 8.81215,8.41641 8.80666,8.42271 8.80105,8.42887 8.79533,8.43487 8.7895,8.44073 8.78356,8.44644 8.77752,8.452 8.77137,8.4574 8.76512,8.46265 8.75877,8.46773 8.75232,8.47265 8.74577,8.47741 8.73913,8.482 8.7324,8.48642 8.72558,8.49067 8.71867,8.49474 8.71167,8.49864 8.70459,8.50235 8.69742,8.50589 8.69017,8.50924 8.68285,8.51241 8.67544,8.51538 8.66797,8.51817 8.66042,8.52076 8.6528,8.52316 8.64511,8.52535 8.63735,8.52735 8.62953,8.52914 8.62165,8.53073 8.6137,8.53211 8.6057,8.53328 8.59764,8.53424 4.81137,4.74796 4.81943,4.74701 4.82744,4.74584 4.83538,4.74446 4.84326,4.74287 4.85109,4.74108 4.85884,4.73908 4.86653,4.73689 4.87415,4.73449 4.8817,4.7319 4.88918,4.72911 4.89658,4.72613 4.90391,4.72297 4.91115,4.71962 4.91832,4.71608 4.9254,4.71237 4.9324,4.70847 4.93931,4.70439 4.94613,4.70015 4.95287,4.69572 4.9595,4.69114 4.96605,4.68638 4.9725,4.68146 4.97885,4.67637 4.9851,4.67113 4.99125,4.66573 4.9973,4.66017 5.00323,4.65446 5.00906,4.6486 5.01478,4.64259 5.02039,4.63644 5.02588,4.63014 " style="fill: #06737F;"/>
     <polygon id="_278288480" class="fil1" points="3.45634,3.59769 7.24261,7.38396 7.23861,7.38053 7.23432,7.37742 7.22973,7.37467 7.22487,7.37229 7.21976,7.37032 7.2144,7.36877 3.42813,3.5825 3.43349,3.58405 3.43861,3.58602 3.44346,3.58839 3.44805,3.59115 3.45235,3.59426 " style="fill: #06737F;"/>
     <polygon id="_278298488" class="fil1" points="3.41333,3.57914 7.1996,7.36541 6.37189,7.16536 2.58562,3.37909 " style="fill: #06737F;"/>
     <polygon id="_278299904" class="fil1" points="2.14128,3.93719 5.92754,7.72346 5.93381,7.72559 5.94003,7.72786 5.9462,7.73026 5.95231,7.73279 5.95838,7.73545 5.96439,7.73823 5.97033,7.74115 5.97623,7.74418 5.98206,7.74733 5.98784,7.75061 5.99355,7.75402 5.9992,7.75753 6.0048,7.76117 6.01032,7.76492 6.01578,7.76879 6.02118,7.77276 6.0265,7.77686 6.03176,7.78106 6.03695,7.78537 6.04207,7.78979 6.04712,7.79431 2.26085,4.00804 2.25581,4.00352 2.25069,3.9991 2.2455,3.99479 2.24024,3.99059 2.23491,3.98649 2.22952,3.98252 2.22406,3.97865 2.21853,3.9749 2.21294,3.97126 2.20728,3.96774 2.20157,3.96434 2.1958,3.96106 2.18996,3.95791 2.18407,3.95487 2.17812,3.95196 2.17211,3.94918 2.16605,3.94652 2.15993,3.94399 2.15376,3.94159 2.14755,3.93932 " style="fill: #06737F;"/>
     <polygon id="_278299856" class="fil1" points="3.42813,3.5825 7.2144,7.36877 7.21435,7.36897 3.42808,3.5827 " style="fill: #06737F;"/>
     <polygon id="_278288912" class="fil1" points="3.42808,3.5827 7.21435,7.36897 7.1996,7.36541 3.41333,3.57914 " style="fill: #06737F;"/>
     <polygon id="_278300480" class="fil1" points="4.81137,4.74796 8.59764,8.53424 8.59764,8.81293 4.81137,5.02666 " style="fill: #06737F;"/>
     <polygon id="_278301200" class="fil1" points="2.29846,4.0477 6.08473,7.83397 6.08071,7.82913 6.07662,7.82436 6.07246,7.81967 6.06824,7.81507 6.06396,7.81055 6.05962,7.80611 6.05522,7.80176 6.05075,7.79748 6.04622,7.7933 2.25996,4.00703 2.26448,4.01121 2.26895,4.01548 2.27335,4.01984 2.2777,4.02428 2.28198,4.0288 2.2862,4.0334 2.29035,4.03809 2.29444,4.04285 " style="fill: #06737F;"/>
     <polygon id="_278290040" class="fil1" points="2.06938,4.04923 5.85565,7.8355 5.85287,7.83516 5.85009,7.83487 5.84729,7.83461 5.84449,7.83441 5.84168,7.83425 5.83886,7.83413 5.83604,7.83406 5.8332,7.83404 2.04693,4.04777 2.04977,4.04779 2.05259,4.04786 2.05541,4.04798 2.05822,4.04814 2.06102,4.04834 2.06382,4.04859 2.0666,4.04889 " style="fill: #06737F;"/>
     <polygon id="_278292800" class="fil1" points="2.39674,4.3357 6.18301,8.12197 6.1829,8.11152 6.18257,8.10112 6.18203,8.0908 6.18128,8.08054 6.18031,8.07035 6.17915,8.06023 6.17777,8.05019 6.17619,8.04024 6.17442,8.03037 6.17245,8.02058 6.17028,8.01089 6.16793,8.00129 6.16538,7.99178 6.16265,7.98238 6.15974,7.97308 6.15664,7.96389 6.15337,7.95481 6.14992,7.94584 6.1463,7.93698 6.14251,7.92825 6.13856,7.91964 6.13443,7.91116 6.13015,7.9028 6.1257,7.89458 6.12111,7.8865 6.11635,7.87855 6.11144,7.87074 6.10639,7.86309 6.10119,7.85557 6.09584,7.84822 6.09036,7.84101 6.08473,7.83397 2.29846,4.0477 2.30409,4.05474 2.30957,4.06194 2.31492,4.0693 2.32012,4.07681 2.32518,4.08447 2.33008,4.09228 2.33484,4.10022 2.33944,4.10831 2.34388,4.11653 2.34817,4.12489 2.35229,4.13337 2.35624,4.14198 2.36004,4.15071 2.36365,4.15957 2.3671,4.16854 2.37037,4.17762 2.37347,4.18681 2.37638,4.19611 2.37911,4.20551 2.38166,4.21502 2.38402,4.22461 2.38618,4.23431 2.38815,4.24409 2.38993,4.25396 2.3915,4.26392 2.39288,4.27396 2.39405,4.28407 2.39501,4.29426 2.39576,4.30452 2.39631,4.31485 2.39663,4.32524 " style="fill: #06737F;"/>
     <polygon id="_278295848" class="fil1" points="4.76313,5.0887 8.5494,8.87498 7.21952,9.19639 3.43325,5.41012 " style="fill: #06737F;"/>
     <polygon id="_278294336" class="fil1" points="4.81137,5.02666 8.59764,8.81293 8.5975,8.8183 8.59691,8.82359 8.59588,8.82878 8.59443,8.83383 8.59256,8.83872 8.59031,8.84344 8.58767,8.84794 8.58468,8.85222 8.58133,8.85624 8.57766,8.85998 8.57367,8.86342 8.56937,8.86653 8.56478,8.86928 8.55992,8.87166 8.5548,8.87363 8.54944,8.87518 4.76318,5.08891 4.76854,5.08736 4.77365,5.08539 4.77851,5.08301 4.7831,5.08026 4.7874,5.07715 4.79139,5.07371 4.79507,5.06997 4.79841,5.06595 4.80141,5.06167 4.80404,5.05717 4.8063,5.05245 4.80816,5.04756 4.80961,5.04251 4.81064,5.03732 4.81123,5.03203 " style="fill: #06737F;"/>
     <polygon id="_278288960" class="fil1" points="3.39343,5.41012 7.17969,9.19639 7.1797,9.1964 7.17971,9.1964 7.17972,9.1964 7.17974,9.1964 3.39347,5.41013 3.39346,5.41013 3.39344,5.41013 3.39344,5.41013 " style="fill: #06737F;"/>
    </g>
    <path id="_279891376" class="fil1" d="M3.91909 1.62283c0.129437,0.129433 0.2095,0.308248 0.2095,0.505756 0,0.197504 -0.080063,0.376323 -0.2095,0.505756 -0.129433,0.129433 -0.308252,0.2095 -0.505756,0.2095 -0.197504,0 -0.376323,-0.0800669 -0.505756,-0.2095 -0.129437,-0.129433 -0.2095,-0.308252 -0.2095,-0.505756 0,-0.197508 0.080063,-0.376323 0.2095,-0.505756 0.129433,-0.129441 0.308248,-0.2095 0.505756,-0.2095 0.197508,0 0.376323,0.0800591 0.505756,0.2095zm-0.525618 3.7873l-4.33071e-005 -7.87402e-006c1.5748e-005,3.93701e-006 2.75591e-005,7.87402e-006 4.33071e-005,7.87402e-006zm-1.12271 -1.07443c0,0.0819685 -0.0266535,0.155567 -0.0697323,0.208276 -0.034815,0.0425945 -0.0803622,0.0711299 -0.130449,0.0780354 0.00124409,-0.000153543 0.0025,-0.000267717 0.00376772,-0.000346457 0.0527756,-0.00834252 0.100425,-0.0410354 0.135587,-0.0890512 0.0378189,-0.0516457 0.0608268,-0.120614 0.0608268,-0.196913zm-0.255469 -0.412264l0.108331 0.0752913c-0.000358268,0.0312008 -0.0858465,0.0459961 -0.0542441,0.0505 -0.00738976,-0.000964567 -0.014878,-0.00146063 -0.0224449,-0.00146063 -0.0593228,0 -0.11387,0.0304449 -0.154091,0.0796575 -0.0430787,0.0527087 -0.0697323,0.126303 -0.0697323,0.208276 0,0.0819685 0.0266535,0.155567 0.0697323,0.208276 0.0402205,0.0492126 0.0947677,0.0796575 0.154091,0.0796575 0.00748819,0 0.0149055,-0.000484252 0.0222205,-0.00143307 -0.0304606,0.0044252 -0.0538622,0.0306496 -0.0538622,0.0623346l0 0.342122c-0.0862874,-0.00905906 -0.163157,-0.333539 -0.21989,-0.402953 -0.0607165,-0.0742913 -0.0982756,-0.176165 -0.0982756,-0.288004 0,-0.111839 0.0375591,-0.213717 0.0982756,-0.288004 0.0567323,-0.0694134 0.133602,-0.115201 0.21989,-0.12426zm0.827488 -0.880969c0.167594,-0.0773543 0.362673,-0.121752 0.570551,-0.121752 0.207878,0 0.402957,0.0443976 0.570551,0.121752 0.160496,0.0740748 0.295945,0.178594 0.393681,0.303626l0.350953 -0.0848189c0.00624803,-0.0020748 0.0129213,-0.00320079 0.0198622,-0.00320079 0.0347913,0 0.0629921,0.0282047 0.0629921,0.0629921l0 0.60237c0.0862874,0.00905906 0.163157,0.0548465 0.21989,0.12426 0.0607165,0.0742874 0.0982756,0.176165 0.0982756,0.288004 0,0.111839 -0.0375591,0.213713 -0.0982756,0.288004 -0.0567323,0.0694134 -0.133602,0.115201 -0.21989,0.12426l0 0.278693c0.000496063,0.0288386 -0.0189882,0.055189 -0.0481929,0.062248l-4.72441e-005 -0.000200787 -1.32988 0.321413c0.0250276,-0.00833858 0.0430748,-0.0319528 0.0430748,-0.0597795l0 -0.079815 0 -1.57743 0 -0.0483504c0.000492126,-0.0288386 -0.0189882,-0.055189 -0.0481929,-0.062248l-5.11811e-005 0.000200787 -0.014748 -0.00356299 -0.827713 -0.200047 -0.556689 -0.0971693c0.0977362,-0.125031 0.653346,-0.165378 0.81385,-0.239453zm-0.446035 1.29323c0,-0.111839 -0.0375591,-0.213717 -0.0982795,-0.288004 -0.0425709,-0.0520866 -0.0964764,-0.0908661 -0.157189,-0.110811l0 0.00030315c0.0671457,0.0220669 0.12587,0.0669843 0.170031,0.127283 0.053126,0.0725394 0.085437,0.167646 0.085437,0.271228zm-0.377232 -0.285748l0.112248 -0.704138c-0.00341339,-0.000527559 -0.108902,0.705248 -0.112248,0.704138z" style="fill: #06737F;"/>
   </g>
  </g>
  <path class="fil2" d="M3.41333 0c1.88513,0 3.41333,1.5282 3.41333,3.41333 0,1.88513 -1.5282,3.41333 -3.41333,3.41333 -1.88513,0 -3.41333,-1.5282 -3.41333,-3.41333 0,-1.88513 1.5282,-3.41333 3.41333,-3.41333z" style="fill: none;"/>
  <path class="fil3" d="M2.09815 3.26128l1.32993 0.321425 5.11811e-005 -0.000200787c0.0292047,0.00705906 0.048685,0.0334094 0.0481929,0.062248l0 1.70559c0,0.0347874 -0.0282047,0.0629921 -0.0629921,0.0629921 -0.00694094,0 -0.0136142,-0.00112598 -0.0198622,-0.00320079l-1.32994 -0.321425 -4.72441e-005 0.000200787c-0.0292047,-0.00705906 -0.048689,-0.0334094 -0.0481929,-0.062248l0 -0.342122c0,-0.0334646 0.0261024,-0.0608346 0.0590551,-0.0628701 0.0527756,-0.00834252 0.100425,-0.0410354 0.135587,-0.0890512 0.0378189,-0.0516457 0.0608268,-0.120614 0.0608268,-0.196913 0,-0.0762992 -0.0230079,-0.145272 -0.0608307,-0.196917 -0.0360866,-0.0492795 -0.0853268,-0.0824173 -0.139768,-0.0896614l0.00812205 -0.062252 -0.00831102 0.0624409c-0.0319094,-0.00424409 -0.0550433,-0.031685 -0.0546811,-0.0630827l0 -0.665161c0,-0.0347874 0.0282008,-0.0629921 0.0629921,-0.0629921 0.00694094,0 0.0136142,0.00112598 0.0198622,0.00320079zm1.25219 0.431823l-1.20906 -0.292213 0 0.536303c0.0671457,0.0220669 0.12587,0.0669843 0.170031,0.127283 0.053126,0.0725394 0.085437,0.167646 0.085437,0.271228 0,0.103583 -0.032311,0.198689 -0.0854331,0.271228 -0.0441654,0.0603031 -0.102886,0.10522 -0.170035,0.127287l0 0.244094 1.20906 0.292213 0 -1.57743z" style="fill: #FFFFFE; fill-rule: nonzero;"/>
  <path class="fil3" d="M2.04693 3.92178c0.0990748,0 0.187949,0.0481181 0.251531,0.125913 0.0607205,0.0742874 0.0982795,0.176165 0.0982795,0.288004 0,0.111839 -0.0375591,0.213713 -0.0982795,0.288004 -0.0635827,0.0777913 -0.152457,0.125913 -0.251531,0.125913 -0.0990787,0 -0.187953,-0.048122 -0.251531,-0.125913 -0.0607165,-0.0742913 -0.0982756,-0.176165 -0.0982756,-0.288004 0,-0.111839 0.0375591,-0.213717 0.0982756,-0.288004 0.0635787,-0.0777913 0.152453,-0.125913 0.251531,-0.125913zm0.154094 0.205642c-0.0402244,-0.0492126 -0.0947717,-0.0796575 -0.154094,-0.0796575 -0.0593228,0 -0.11387,0.0304449 -0.154091,0.0796575 -0.0430787,0.0527087 -0.0697323,0.126303 -0.0697323,0.208276 0,0.0819685 0.0266535,0.155567 0.0697323,0.208276 0.0402205,0.0492126 0.0947677,0.0796575 0.154091,0.0796575 0.0593228,0 0.11387,-0.0304449 0.154094,-0.0796575 0.0430787,-0.0527087 0.0697323,-0.126307 0.0697323,-0.208276 0,-0.0819724 -0.0266535,-0.155567 -0.0697323,-0.208276z" style="fill: #FFFFFE; fill-rule: nonzero;"/>
  <path class="fil3" d="M4.68539 3.40089l-1.20906 0.292213 0 1.57743 1.20906 -0.292213 0 -0.244094c-0.0671496,-0.0220669 -0.12587,-0.0669843 -0.170035,-0.127287 -0.053122,-0.0725394 -0.0854331,-0.167646 -0.0854331,-0.271228 0,-0.103583 0.032311,-0.198689 0.085437,-0.271228 0.0441614,-0.0602992 0.102886,-0.105217 0.170031,-0.127283l0 -0.536303zm-1.2868 0.181815l1.32993 -0.321425c0.00624803,-0.0020748 0.0129213,-0.00320079 0.0198622,-0.00320079 0.0347913,0 0.0629921,0.0282047 0.0629921,0.0629921l0 0.665161c0.000362205,0.0313976 -0.0227717,0.0588386 -0.0546811,0.0630827l-0.00831102 -0.0624409 0.00812205 0.062252c-0.0544409,0.00724409 -0.103681,0.0403819 -0.139768,0.0896614 -0.0378228,0.0516457 -0.0608307,0.120618 -0.0608307,0.196917 0,0.0762992 0.0230079,0.145268 0.0608268,0.196913 0.0351614,0.0480157 0.082811,0.0807087 0.135587,0.0890512 0.0329528,0.00203543 0.0590551,0.0294055 0.0590551,0.0628701l0 0.342122c0.000496063,0.0288386 -0.0189882,0.055189 -0.0481929,0.062248l-4.72441e-005 -0.000200787 -1.32994 0.321425c-0.00624803,0.0020748 -0.0129213,0.00320079 -0.0198622,0.00320079 -0.0347874,0 -0.0629921,-0.0282047 -0.0629921,-0.0629921l0 -1.70559c-0.000492126,-0.0288386 0.0189882,-0.055189 0.0481929,-0.062248l5.11811e-005 0.000200787z" style="fill: #FFFFFE; fill-rule: nonzero;"/>
  <path class="fil3" d="M4.77973 4.04777c-0.0593228,0 -0.11387,0.0304449 -0.154094,0.0796575 -0.0430787,0.0527087 -0.0697323,0.126303 -0.0697323,0.208276 0,0.0819685 0.0266535,0.155567 0.0697323,0.208276 0.0402244,0.0492126 0.0947717,0.0796575 0.154094,0.0796575 0.0593228,0 0.11387,-0.0304449 0.154091,-0.0796575 0.0430787,-0.0527087 0.0697323,-0.126307 0.0697323,-0.208276 0,-0.0819724 -0.0266535,-0.155567 -0.0697323,-0.208276 -0.0402205,-0.0492126 -0.0947677,-0.0796575 -0.154091,-0.0796575zm-0.251531 -7.08661e-005c0.0635827,-0.0777953 0.152457,-0.125913 0.251531,-0.125913 0.0990787,0 0.187953,0.048122 0.251531,0.125913 0.0607165,0.0742874 0.0982756,0.176165 0.0982756,0.288004 0,0.111839 -0.0375591,0.213713 -0.0982756,0.288004 -0.0635787,0.0777913 -0.152453,0.125913 -0.251531,0.125913 -0.0990748,0 -0.187949,-0.048122 -0.251531,-0.125913 -0.0607205,-0.0742913 -0.0982795,-0.176165 -0.0982795,-0.288004 0,-0.111839 0.0375591,-0.213717 0.0982795,-0.288004z" style="fill: #FFFFFE; fill-rule: nonzero;"/>
  <path class="fil3" d="M3.41333 1.41333c0.197508,0 0.376323,0.0800591 0.505756,0.2095 0.129437,0.129433 0.2095,0.308248 0.2095,0.505756 0,0.197504 -0.080063,0.376323 -0.2095,0.505756 -0.129433,0.129433 -0.308252,0.2095 -0.505756,0.2095 -0.197504,0 -0.376323,-0.0800669 -0.505756,-0.2095 -0.129437,-0.129433 -0.2095,-0.308252 -0.2095,-0.505756 0,-0.197508 0.080063,-0.376323 0.2095,-0.505756 0.129433,-0.129441 0.308248,-0.2095 0.505756,-0.2095zm0.416681 0.298575c-0.10663,-0.106634 -0.253953,-0.172591 -0.416681,-0.172591 -0.162728,0 -0.310051,0.0659567 -0.416681,0.172591 -0.106634,0.10663 -0.172591,0.253953 -0.172591,0.416681 0,0.162724 0.0659606,0.310051 0.172591,0.416681 0.10663,0.10663 0.253957,0.172591 0.416681,0.172591 0.162724,0 0.310051,-0.0659606 0.416681,-0.172591 0.10663,-0.10663 0.172591,-0.253957 0.172591,-0.416681 0,-0.162728 -0.0659567,-0.310051 -0.172591,-0.416681z" style="fill: #FFFFFE; fill-rule: nonzero;"/>
  <path class="fil3" d="M4.24104 3.37909c-0.0814961,-0.0898228 -0.187154,-0.165839 -0.309819,-0.222449 -0.151331,-0.0698504 -0.328354,-0.109941 -0.517894,-0.109941 -0.189539,0 -0.366563,0.0400906 -0.517894,0.109941 -0.122665,0.0566102 -0.228323,0.132626 -0.309819,0.222449l0.827713 0.200047 0.827713 -0.200047zm-0.257161 -0.336622c0.173579,0.0801142 0.317858,0.195835 0.416819,0.334602 0.0057874,0.00708268 0.0101142,0.0155433 0.0124055,0.0250236 0.00817323,0.033815 -0.0126142,0.0678583 -0.0464291,0.0760276l-4.72441e-005 -0.000200787 -0.933547 0.225626c-0.0107953,0.0035748 -0.022689,0.00427953 -0.0345512,0.00140945l0.0147992 -0.0612283 -0.0147638 0.0610236 -0.933472 -0.225606c-0.00929528,-0.00143701 -0.0184094,-0.00498819 -0.0266181,-0.0107756 -0.0284291,-0.0200512 -0.0352205,-0.0593543 -0.0151693,-0.0877835l9.84252e-005 7.08661e-005c0.0990276,-0.140362 0.244295,-0.257386 0.419374,-0.338189 0.167594,-0.0773543 0.362673,-0.121752 0.570551,-0.121752 0.207878,0 0.402957,0.0443976 0.570551,0.121752z" style="fill: #FFFFFE; fill-rule: nonzero;"/>
 </g>

	<metadata>
		<rdf:RDF xmlns:rdf="http://www.w3.org/1999/02/22-rdf-syntax-ns#" xmlns:rdfs="http://www.w3.org/2000/01/rdf-schema#" xmlns:dc="http://purl.org/dc/elements/1.1/">
			<rdf:Description about="https://iconscout.com/legal#licenses" dc:title="245 - Reading" dc:description="245 - Reading" dc:publisher="Iconscout" dc:date="2017-05-17" dc:format="image/svg+xml" dc:language="en">
				<dc:creator>
					<rdf:Bag>
						<rdf:li>IYIKON ...</rdf:li>
					</rdf:Bag>
				</dc:creator>
			</rdf:Description>
		</rdf:RDF>
    </metadata></svg>
