<svg xmlns="http://www.w3.org/2000/svg" width="48" height="48" viewBox="0 0 48 48"><g fill="#fff" transform="translate(8.001 -1013.362)"><circle cx="15.999" cy="1037.362" r="24" fill="#1d67b1" fill-rule="evenodd"/><path fill="#154082" style="line-height:normal;text-indent:0;text-align:start;text-decoration-line:none;text-decoration-style:solid;text-decoration-color:#000;text-transform:none;block-progression:tb;isolation:auto;mix-blend-mode:normal" d="M 28.689453 47.513672 A 23.999998 23.999998 0 0 0 30.419922 47.125 A 23.999998 23.999998 0 0 0 32.697266 46.369141 A 23.999998 23.999998 0 0 0 34.886719 45.388672 A 23.999998 23.999998 0 0 0 36.966797 44.195312 A 23.999998 23.999998 0 0 0 38.917969 42.800781 A 23.999998 23.999998 0 0 0 40.720703 41.216797 A 23.999998 23.999998 0 0 0 42.355469 39.460938 A 23.999998 23.999998 0 0 0 43.808594 37.550781 A 23.999998 23.999998 0 0 0 45.0625 35.505859 A 23.999998 23.999998 0 0 0 46.105469 33.345703 A 23.999998 23.999998 0 0 0 46.927734 31.091797 A 23.999998 23.999998 0 0 0 47.521484 28.767578 A 23.999998 23.999998 0 0 0 47.53125 28.707031 L 35.679688 16.857422 L 35.638672 16.814453 C 35.622635 16.79842 35.600677 16.78882 35.583984 16.773438 C 35.495349 16.691559 35.399703 16.618529 35.294922 16.554688 C 35.263126 16.535338 35.232254 16.515774 35.199219 16.498047 C 35.067747 16.427423 34.929834 16.365906 34.783203 16.320312 C 34.319764 16.176213 33.782691 16.135416 33.173828 16.166016 C 33.041676 16.172658 32.887435 16.201204 32.748047 16.214844 L 27.775391 11.244141 L 27.765625 11.234375 C 27.652099 11.120713 27.529944 11.018051 27.396484 10.927734 C 26.997356 10.657622 26.516127 10.5 26 10.5 C 25.672382 10.5 25.361454 10.566041 25.074219 10.681641 C 24.838559 10.498416 24.577761 10.360283 24.292969 10.302734 C 24.198038 10.283552 24.100109 10.273437 24 10.273438 C 23.249883 10.273438 22.635896 10.797456 22.150391 11.535156 C 21.664886 12.272756 21.260373 13.278759 20.919922 14.505859 C 20.670412 15.405059 20.472467 16.455206 20.302734 17.566406 C 17.826207 16.591106 15.660377 16.076216 14.128906 16.166016 C 13.24764 16.218016 12.487977 16.487719 12.113281 17.136719 C 11.738271 17.786319 11.88541 18.579941 12.28125 19.369141 C 12.67709 20.158441 13.346118 21.011622 14.238281 21.919922 L 14.332031 22.015625 C 14.340328 22.023922 14.351032 22.032709 14.359375 22.041016 L 16.445312 24.128906 C 15.622202 24.792874 14.856744 25.450398 14.238281 26.080078 C 13.346118 26.988378 12.67709 27.841559 12.28125 28.630859 C 11.88541 29.420059 11.738271 30.213681 12.113281 30.863281 C 12.178554 30.976339 12.258521 31.076725 12.347656 31.167969 C 12.352178 31.172602 12.354798 31.179015 12.359375 31.183594 L 28.689453 47.513672 z " color="#000" font-family="sans-serif" font-weight="400" transform="translate(-8.001 1013.362)" white-space="normal"/><path style="line-height:normal;text-indent:0;text-align:start;text-decoration-line:none;text-decoration-style:solid;text-decoration-color:#000;text-transform:none;block-progression:tb;isolation:auto;mix-blend-mode:normal" d="m 16,2.2734375 c -0.750117,0 -1.364104,0.5240188 -1.849609,1.2617187 -0.485505,0.7376 -0.890018,1.7436032 -1.230469,2.9707032 C 12.670412,7.4051379 12.472467,8.455188 12.302734,9.5664062 9.8262061,8.5910772 7.6603773,8.0762019 6.1289062,8.1660156 5.2476398,8.2180156 4.4879765,8.4877187 4.1132812,9.1367188 3.7382706,9.7863187 3.8854099,10.579941 4.28125,11.369141 c 0.3958401,0.7893 1.0648679,1.642481 1.9570312,2.550781 C 6.8969346,14.590525 7.7144025,15.292011 8.5996094,16 7.7144025,16.707989 6.8969346,17.409475 6.2382812,18.080078 5.346118,18.988378 4.6770901,19.841559 4.28125,20.630859 c -0.3958401,0.7892 -0.5429795,1.582822 -0.1679688,2.232422 0.2506799,0.4342 0.6945979,0.703344 1.1992188,0.839844 0.391842,0.106071 0.8481939,0.128297 1.3378906,0.115234 C 6.9922745,24.792592 7.9119004,25.5 9,25.5 c 1.376349,0 2.5,-1.1236 2.5,-2.5 0,-0.09401 -0.01714,-0.184019 -0.02734,-0.275391 0.271715,-0.09749 0.547562,-0.201135 0.828125,-0.310547 0.170212,1.118746 0.368185,2.175587 0.619141,3.080079 0.340451,1.2271 0.744964,2.233103 1.230469,2.970703 0.485505,0.7377 1.099492,1.261718 1.849609,1.261718 0.750117,0 1.364104,-0.524018 1.849609,-1.261718 0.485505,-0.7376 0.890018,-1.743603 1.230469,-2.970703 0.25169,-0.907138 0.450641,-1.967275 0.621094,-3.089844 0.62452,0.241777 1.22468,0.452421 1.802734,0.634765 C 21.52554,23.843239 22.191073,24.5 23,24.5 c 0.559343,0 1.044986,-0.318041 1.302734,-0.777344 0.744823,0.106468 1.424801,0.148756 1.994141,0.0625 0.68052,-0.1032 1.277562,-0.380975 1.589844,-0.921875 0.37501,-0.6496 0.227871,-1.443222 -0.167969,-2.232422 -0.39584,-0.7893 -1.064868,-1.642481 -1.957031,-2.550781 C 25.102953,17.40936 24.285784,16.708113 23.400391,16 c 0.885206,-0.707989 1.702674,-1.409475 2.361328,-2.080078 0.892163,-0.9083 1.561191,-1.761481 1.957031,-2.550781 0.39584,-0.7892 0.542979,-1.5828222 0.167969,-2.2324222 C 27.652333,8.7308188 27.246643,8.4644125 26.783203,8.3203125 26.319764,8.1762125 25.782691,8.1354156 25.173828,8.1660156 23.721559,8.239126 21.82245,8.7385554 19.693359,9.5742188 19.560556,8.7127233 19.407704,7.9023965 19.226562,7.1640625 19.982646,6.7331723 20.5,5.9290812 20.5,5 20.5,3.6237 19.376349,2.5 18,2.5 17.672382,2.5 17.361454,2.5660508 17.074219,2.6816406 16.760006,2.4373195 16.400438,2.2734375 16,2.2734375 Z m 0,1 c 0.03604,0 0.08798,0.042811 0.136719,0.076172 C 15.745373,3.7911573 15.5,4.3663648 15.5,5 c 0,0.51615 0.157637,0.9954023 0.427734,1.3945312 3.19e-4,4.723e-4 -3.19e-4,0.00148 0,0.00195 0.08983,0.1325704 0.193756,0.2562573 0.306641,0.3691406 0.226478,0.226475 0.49603,0.4102656 0.794922,0.5371094 C 17.328188,7.4295781 17.655912,7.5 18,7.5 c 0.08771,0 0.170425,-0.018443 0.255859,-0.027344 0.182949,0.7523683 0.333818,1.6006311 0.46875,2.4902344 C 17.84735,10.33803 16.93279,10.776662 16.001953,11.255859 15.060258,10.769604 14.14203,10.336841 13.255859,9.9570312 13.426127,8.7846827 13.630714,7.6891293 13.884766,6.7734375 14.207625,5.6098375 14.593095,4.6813844 14.986328,4.0839844 15.379561,3.4864844 15.733437,3.2734375 16,3.2734375 Z M 18,3.5 c 0.839645,0 1.5,0.6604 1.5,1.5 0,0.6161819 -0.35782,1.1322834 -0.878906,1.3652344 l -0.13086,0.044922 C 18.324499,6.4671563 18.16445,6.5 18,6.5 17.685133,6.5 17.395323,6.4064432 17.15625,6.2460938 16.997288,6.1394757 16.860686,6.002593 16.753906,5.84375 c -3.17e-4,-4.732e-4 3.17e-4,-0.00148 0,-0.00195 -0.106568,-0.1588796 -0.185105,-0.3390353 -0.224609,-0.5351563 -1.24e-4,-6.211e-4 1.23e-4,-0.00133 0,-0.00195 C 16.5096,5.2062705 16.5,5.1049625 16.5,5 c 0,-0.1320841 0.02114,-0.2581388 0.05273,-0.3789062 0.0047,-0.018492 0.01027,-0.036495 0.01563,-0.054688 0.03314,-0.1089119 0.07491,-0.2122951 0.13086,-0.3085937 0.0037,-0.00631 0.006,-0.013283 0.0098,-0.019531 0.130828,-0.2176514 0.317123,-0.3999449 0.539063,-0.5292968 l 0.132812,-0.076172 0.03125,-0.017578 C 17.592093,3.5402031 17.790089,3.5 18,3.5 Z M 6.1875,9.1660156 c 1.2820296,-0.075177 3.4346351,0.4420234 5.958984,1.4433594 -0.116203,0.954179 -0.200108,1.965671 -0.251953,3.019531 -0.888712,0.573155 -1.724552,1.151377 -2.4941404,1.730469 C 8.4670978,14.623929 7.6186985,13.898361 6.9511719,13.21875 6.1051383,12.35735 5.496369,11.559122 5.1757812,10.919922 4.8551937,10.280722 4.8471394,9.8677187 4.9804688,9.6367188 5.1141137,9.4052187 5.4732283,9.2079156 6.1875,9.1660156 Z m 19.037109,0 c 0.530808,-0.027 0.962552,0.015975 1.261719,0.109375 0.299168,0.093 0.449876,0.2170282 0.533203,0.3613282 0.13333,0.2309999 0.125275,0.6440032 -0.195312,1.2832032 -0.320588,0.6392 -0.929357,1.437428 -1.775391,2.298828 -0.668046,0.68014 -1.516967,1.406538 -2.451172,2.142578 -0.769015,-0.578613 -1.604248,-1.157786 -2.492187,-1.730469 -0.0529,-1.059642 -0.141335,-2.067849 -0.259766,-3.02539 2.168406,-0.86441 4.066757,-1.373365 5.378906,-1.4394534 z m -6.353515,1.8417964 c 0.07634,0.631967 0.136082,1.294725 0.183594,1.976563 -0.325474,-0.198216 -0.631335,-0.400897 -0.96875,-0.595703 -0.33654,-0.1943 -0.666962,-0.368182 -1,-0.550781 0.607127,-0.298354 1.204615,-0.578689 1.785156,-0.830079 z m -5.765625,0.002 c 0.587397,0.252635 1.188283,0.529336 1.802734,0.830078 -0.33082,0.181186 -0.660087,0.355962 -0.994141,0.548828 -0.340794,0.196757 -0.649908,0.401331 -0.978515,0.601562 0.04451,-0.680526 0.09758,-1.347376 0.169922,-1.980468 z m 2.890625,1.375 c 0.526273,0.276167 1.056078,0.562916 1.589844,0.871093 0.534574,0.308627 1.032255,0.626696 1.535156,0.94336 0.02413,0.591048 0.04883,1.182257 0.04883,1.800781 0,0.61733 -0.02793,1.206856 -0.05078,1.800781 -0.502468,0.316366 -0.999122,0.635018 -1.533203,0.94336 -0.533182,0.307846 -1.05896,0.593224 -1.580079,0.865234 -0.52597,-0.275361 -1.053792,-0.554649 -1.5918,-0.86528 -0.534081,-0.308342 -1.030735,-0.626994 -1.533203,-0.94336 C 12.858005,17.206856 12.830078,16.61733 12.830078,16 c 0,-0.617999 0.02788,-1.208194 0.05078,-1.802734 0.502382,-0.316308 0.999219,-0.633121 1.533203,-0.941407 0.530522,-0.306297 1.059443,-0.596049 1.582032,-0.871093 z M 16,13.5 c -1.376349,0 -2.5,1.1237 -2.5,2.5 0,1.3764 1.123651,2.5 2.5,2.5 1.376349,0 2.5,-1.1236 2.5,-2.5 0,-1.3763 -1.123651,-2.5 -2.5,-2.5 z m 0,1 c 0.839645,0 1.5,0.6604 1.5,1.5 0,0.8397 -0.660355,1.5 -1.5,1.5 -0.839645,0 -1.5,-0.6603 -1.5,-1.5 0,-0.8396 0.660355,-1.5 1.5,-1.5 z m -4.138672,0.349609 c -0.0091,0.385468 -0.03125,0.75608 -0.03125,1.150391 0,0.393642 0.02216,0.763608 0.03125,1.148438 C 11.288676,16.766078 10.731393,16.382698 10.214844,16 c 0.516601,-0.382743 1.073769,-0.76799 1.646484,-1.150391 z m 8.277344,0.002 c 0.572652,0.382362 1.129935,0.765735 1.646484,1.148438 -0.516549,0.382698 -1.073832,0.766078 -1.646484,1.148438 0.0091,-0.38483 0.03125,-0.754796 0.03125,-1.148438 0,-0.393654 -0.02202,-0.763958 -0.03125,-1.148438 z M 9.4003906,16.640625 c 0.7695884,0.579092 1.6054284,1.157314 2.4941404,1.730469 0.05144,1.045542 0.133236,2.050509 0.248047,2.998047 -0.335065,0.131321 -0.669936,0.263539 -0.992187,0.378906 C 10.77985,21.114888 10.145094,20.659963 9.3945312,20.539062 9.2675362,20.515241 9.1365439,20.5 9,20.5 c -0.1634917,0 -0.3217827,0.01768 -0.4746094,0.04883 -1.0832254,0.210506 -1.9099447,1.124699 -2.0039062,2.244141 -0.3562411,8.16e-4 -0.7196429,0.0065 -0.9472656,-0.05664 -0.3386108,-0.092 -0.5065091,-0.221947 -0.59375,-0.373047 -0.1333295,-0.231 -0.1252752,-0.644003 0.1953124,-1.283203 0.3205877,-0.6392 0.9293571,-1.437528 1.7753907,-2.298828 0.6675266,-0.679651 1.5159259,-1.405165 2.4492187,-2.140625 z m 13.1992184,0 c 0.933293,0.73546 1.781693,1.460974 2.449219,2.140625 0.846034,0.8613 1.454803,1.659628 1.775391,2.298828 0.320587,0.6392 0.328642,1.052203 0.195312,1.283203 -0.109521,0.1897 -0.36078,0.356194 -0.871093,0.433594 -0.410793,0.0619 -1.024213,0.01068 -1.677735,-0.08203 C 24.352512,22.112307 23.869066,21.635088 23.263672,21.525391 23.179082,21.508265 23.09136,21.5 23,21.5 c -0.475939,0 -0.898144,0.231382 -1.173828,0.582031 -0.623824,-0.195835 -1.286927,-0.437409 -1.970703,-0.705078 0.115321,-0.949979 0.198414,-1.957262 0.25,-3.005859 0.888712,-0.573155 1.724552,-1.151377 2.49414,-1.730469 z m -9.664062,2.369141 c 0.328607,0.200231 0.637721,0.404805 0.978515,0.601562 0.336045,0.194018 0.663585,0.359672 0.996094,0.541016 -0.61518,0.298147 -1.217283,0.573015 -1.804687,0.822265 -0.07157,-0.62854 -0.125763,-1.289647 -0.169922,-1.964843 z m 6.128906,0 c -0.04429,0.677195 -0.09807,1.340454 -0.169922,1.970703 -0.585904,-0.249371 -1.186287,-0.524998 -1.800781,-0.824219 0.330717,-0.18061 0.658309,-0.352155 0.992188,-0.544922 0.340794,-0.196757 0.649908,-0.401331 0.978515,-0.601562 z m -3.066406,1.732422 c 0.947006,0.484033 1.859904,0.896935 2.75,1.271484 -0.170898,1.184051 -0.376629,2.289514 -0.632813,3.21289 -0.322859,1.163601 -0.708329,2.092054 -1.101562,2.689454 -0.393233,0.5975 -0.747109,0.810546 -1.013672,0.810546 -0.266563,0 -0.620439,-0.213046 -1.013672,-0.810546 -0.393233,-0.5974 -0.778703,-1.525853 -1.101562,-2.689454 -0.255466,-0.920789 -0.460172,-2.023016 -0.63086,-3.203124 0.88695,-0.375553 1.801991,-0.798809 2.744141,-1.28125 z M 9,21.5 c 0.1575073,0 0.3062676,0.02828 0.4472656,0.07227 0.018918,0.0058 0.038068,0.01108 0.056641,0.01758 0.4397594,0.157123 0.7791954,0.511841 0.9199214,0.96289 l 0.04883,0.15625 C 10.490435,22.802726 10.5,22.900413 10.5,23 10.5,23.8397 9.839645,24.5 9,24.5 8.2825905,24.5 7.6985361,24.015681 7.5429688,23.351562 L 7.5253906,23.234375 C 7.50981,23.134975 7.5,23.0597 7.5,23 c 0,-0.104288 0.00984,-0.206852 0.029297,-0.304688 0,0 0,-0.002 0,-0.002 0.019573,-0.09779 0.050718,-0.191767 0.087891,-0.28125 0,0 0,-0.002 0,-0.002 C 7.692018,22.230555 7.8010187,22.07026 7.9355474,21.935453 8.1380802,21.733009 8.400073,21.58839 8.6953125,21.529297 8.7937258,21.509599 8.8950443,21.5 9,21.5 Z m 14,1 c 0.285668,0 0.5,0.2144 0.5,0.5 0,-0.061 -0.0029,-0.04311 -0.02734,0.08789 l -0.02344,0.130859 C 23.370383,23.386228 23.204688,23.5 23,23.5 c -0.285666,0 -0.5,-0.2143 -0.5,-0.5 0,-0.02727 0.0099,-0.05033 0.01367,-0.07617 l 0.02344,-0.07227 c 0.03304,-0.103742 0.09112,-0.190625 0.167969,-0.251953 0.0073,-0.0053 0.01579,-0.0088 0.02344,-0.01367 0.03139,-0.02211 0.0647,-0.04103 0.101562,-0.05469 C 22.8831,22.513156 22.939112,22.5 23,22.5 Z" color="#000" font-family="sans-serif" font-weight="400" overflow="visible" transform="translate(-.001 1021.362)" white-space="normal"/></g></svg>